inDegrees=no
num_controls=7
num_derivatives=13
num_iterations=38
num_multipliers=7
num_parameters=0
num_slacks=7
num_states=26
objective=0.427038
objective_accelerations=0.061892
objective_balance=0.001203
objective_effort=0.016211
objective_height=0.341217
objective_ligament=0.006515
solver_duration=656.984902
status=Solve_Succeeded
success=true
DataType=double
version=3
OpenSimVersion=4.5
endheader
time	/jointset/ground_pelvis/pelvis_tilt/value	/jointset/ground_pelvis/pelvis_tx/value	/jointset/ground_pelvis/pelvis_ty/value	/jointset/hip_l/hip_flexion_l/value	/jointset/hip_l/hip_adduction_l/value	/jointset/hip_l/hip_rotation_l/value	/jointset/back/lumbar_extension/value	/jointset/patellofemoral_l/patellar_flexion_l/value	/jointset/knee_l/knee_flexion_l/value	/jointset/knee_l/knee_adduction_l/value	/jointset/knee_l/knee_rotation_l/value	/jointset/ankle_l/ankle_angle_l/value	/jointset/subtalar_l/subtalar_angle_l/value	/jointset/ground_pelvis/pelvis_tilt/speed	/jointset/ground_pelvis/pelvis_tx/speed	/jointset/ground_pelvis/pelvis_ty/speed	/jointset/hip_l/hip_flexion_l/speed	/jointset/hip_l/hip_adduction_l/speed	/jointset/hip_l/hip_rotation_l/speed	/jointset/back/lumbar_extension/speed	/jointset/patellofemoral_l/patellar_flexion_l/speed	/jointset/knee_l/knee_flexion_l/speed	/jointset/knee_l/knee_adduction_l/speed	/jointset/knee_l/knee_rotation_l/speed	/jointset/ankle_l/ankle_angle_l/speed	/jointset/subtalar_l/subtalar_angle_l/speed	/forceset/tau_hip_flexion_l	/forceset/tau_hip_adduction_l	/forceset/tau_hip_rotation_l	/forceset/tau_knee_flexion_l	/forceset/tau_ankle_angle_l	/forceset/tau_subtalar_angle_l	/forceset/tau_lumbar_extension	lambda_cid13_p0	lambda_cid13_p1	lambda_cid13_p2	lambda_cid13_p3	lambda_cid13_p4	lambda_cid13_p5	lambda_cid14_p0	/jointset/ground_pelvis/pelvis_tilt/accel	/jointset/ground_pelvis/pelvis_tx/accel	/jointset/ground_pelvis/pelvis_ty/accel	/jointset/hip_l/hip_flexion_l/accel	/jointset/hip_l/hip_adduction_l/accel	/jointset/hip_l/hip_rotation_l/accel	/jointset/back/lumbar_extension/accel	/jointset/patellofemoral_l/patellar_flexion_l/accel	/jointset/knee_l/knee_flexion_l/accel	/jointset/knee_l/knee_adduction_l/accel	/jointset/knee_l/knee_rotation_l/accel	/jointset/ankle_l/ankle_angle_l/accel	/jointset/subtalar_l/subtalar_angle_l/accel	gamma_cid13_p0	gamma_cid13_p1	gamma_cid13_p2	gamma_cid13_p3	gamma_cid13_p4	gamma_cid13_p5	gamma_cid14_p0
0.5	-0.2273941580065151	0.02895635384987332	0.7632232137916882	1.028981965233702	-0.3589034943273902	-0.003192151129223718	-0.4024429482123479	0.9939497724742875	0.993949772474231	-0.01377898132678042	-0.1744228873439032	0.3247106317884332	0.1746315994491429	-0.7719697130417766	-0.1784282319323745	-0.5651594844843162	2.503375206194839	0.0431869861855765	0.5205977753377925	-0.3052948607387676	2.093494656917763	2.093494656917777	0.3619890784116048	0.0006395227871548496	0.5353246611824869	0.2937007611324977	-0.1081397500172085	0.08031251043336918	-0.004552423382967524	-0.1989277650884677	0.0115321407063267	-0.01651794422293089	0.1188215810752598	-23.63068701546538	16.5444601594095	-8.896171252439135	0.863661485867069	-437.3046649224144	-23.45062890977032	-3.759108181756344	0.3985241738548027	0.402429967329369	-0.5260122455791013	-1.174655272315031	0.1014588665734302	-0.9410304483827387	1.454372478638458	-1.645453445068653	-1.645453445068654	-0.02246706793743353	-0.03347564969343866	-1.018620727121172	0.05321425530020848	-5.399938571049649e-07	1.32772082049097e-06	8.473958612468247e-06	6.736033848737888e-07	-1.557426035338692e-06	-1.120970563882481e-07	-8.926819020810824e-07
0.51	-0.2350916420274633	0.02719256806724818	0.7575467649093802	1.05395165807422	-0.3584694475378097	0.001976637209223026	-0.4054239510525049	1.014798792157921	1.014798792157917	-0.01017356881164221	-0.1744163032256233	0.3300112670775618	0.1775661653111562	-0.7674046752232091	-0.1743007745351597	-0.5699966203573807	2.490203875135879	0.04360989834113934	0.5132040090676774	-0.2908653951187883	2.076013150793219	2.076013150793226	0.358989826255199	0.0006904238554363339	0.5247269450455136	0.2931405703270508	-0.1131323740889792	0.0812710456196616	-0.004828608371359637	-0.2018173471808862	0.01025589890511678	-0.01609860642330167	0.122667390180029	-24.2883586797401	16.7116970502629	-9.190350303123646	0.9727149698299233	-440.9933275866277	-23.4592225415961	-3.188574953721522	0.5038355779977286	0.4222662858158927	-0.4428183651134565	-1.442350371244383	0.009442111176382793	-0.6327991464277432	1.443280429960027	-1.843742486549689	-1.843742486550864	-0.4539495057074477	0.02800864110367969	-1.091614500266463	-0.1226667833621457	-4.099014760847795e-07	2.799340792459997e-07	6.07686289441325e-06	3.930718381370749e-07	-1.174680599725448e-06	-4.350216342929048e-07	-6.99973982384576e-07
0.52	-0.2427398072717986	0.02547092939057443	0.7518258938469541	1.07877884193445	-0.3580318246824459	0.007072637998955698	-0.4082594498712024	1.035464148122233	1.035464148122264	-0.006601207861402882	-0.1744084829654408	0.3352036717166572	0.180492723058136	-0.7621059577190389	-0.1699988107420943	-0.5740439205080636	2.474873410134604	0.04390219934182983	0.5060402655935022	-0.2761940564475028	2.056761913052581	2.05676191305258	0.355378765450194	0.0008867511643020597	0.5136785311772951	0.2920991381258015	-0.1181249981606154	0.08222958080602154	-0.005104793360683253	-0.2047069292732958	0.008979657103924421	-0.01567926862355427	0.1265131992849193	-24.9410494926954	16.87053005097383	-9.474582072957613	1.035758176693937	-444.5863588539485	-23.59085418225382	-2.670463282004599	0.5452601109755499	0.437331246499219	-0.3680451011028232	-1.606482060778262	0.0753366355989069	-0.8950258891948161	1.502747088899778	-1.999399768287385	-1.999399768287385	-0.1448287976571818	-0.004390401576683351	-1.108760273370533	-0.04303402386039128	-1.696745207001228e-07	-2.275686439830559e-06	1.241250083880272e-06	-2.285837496127115e-07	-4.68409478291033e-07	-1.593501740051893e-06	-3.356240283972226e-07
0.53	-0.2503318422580904	0.02379305042295968	0.7460685236652105	1.103442784761651	-0.3575901962062723	0.01208583379562314	-0.4109470517946358	1.055928291060683	1.055928291060703	-0.003055116854369919	-0.174402740939492	0.3402838839878307	0.1834092757220119	-0.7561979397044746	-0.1655564985512535	-0.5772917933344808	2.45757360548985	0.04438587080292244	0.4968085291831193	-0.2613233777884459	2.035770598878607	2.035770598878609	0.3535705682676061	0.0003596239218180834	0.5022804638093992	0.2910945477878178	-0.1228336785111981	0.08292074237742607	-0.005279362383934983	-0.2081586139705216	0.008139575236062114	-0.01536811357281563	0.1301015710696811	-25.48054310439644	17.0816005512945	-9.795782908386387	1.095681290906172	-448.3524859829636	-23.73975448269418	-2.20334843763009	0.6290100426371712	0.4506428171342685	-0.2824294853436071	-1.842984841750093	0.02967107085699192	-0.9059711111857642	1.479670822221064	-2.193379755876319	-2.193379755875804	-0.2396374297072618	-0.06255604706633761	-1.168018381898727	-0.1459708345112562	-4.56962417282426e-08	-3.54156076692045e-06	-1.21167887489154e-06	-5.44603267440534e-07	-9.751725352775017e-08	-2.158126071335135e-06	-1.504032089866892e-07
0.54	-0.2578617095850493	0.02216018689960457	0.7402828205328176	1.127923478507334	-0.3571447732815879	0.01701296750934813	-0.4134858584179128	1.076173644354607	1.07617364435461	0.0004647277305526635	-0.174399406618264	0.3452475779026389	0.1863124226233592	-0.7496724258522915	-0.1609957218901683	-0.5797105106380809	2.438223593828058	0.04466108904370186	0.4888278490037179	-0.2464349964168808	2.013003984147685	2.013003984147691	0.3501294810391197	0.0004052102200494577	0.4903748599055154	0.2894179856200764	-0.1275423588616425	0.0836119039488893	-0.005453931407780439	-0.2116102986677415	0.007299493368210607	-0.0150569585219768	0.1336899428545698	-26.01901231833341	17.28460073827593	-10.1066866499891	1.149568598176731	-452.0853281464123	-23.91381926605995	-1.785710729245659	0.6687592784995394	0.4610241405478747	-0.2022139965394181	-2.016523464185832	0.03364599153623962	-0.6448146429985213	1.506287631401531	-2.354459879676586	-2.354459879676585	-0.4714068068368472	0.1101523065663217	-1.210267580568451	-0.1774283898120474	-5.033351963858484e-08	-3.380481860322947e-06	-1.028446976395648e-06	-5.224722398227757e-07	-9.768253146444698e-08	-2.0657184819218e-06	-1.633678150654056e-07
0.55	-0.2653233231382398	0.02057346260267569	0.7344770700713024	1.152200745234763	-0.3566973341522147	0.02186439562753139	-0.4158756468753447	1.096182829907648	1.096182829907606	0.003944305435752322	-0.1743937764523482	0.3500899755544176	0.1891959593673126	-0.742547294693078	-0.1563344619650182	-0.5812999052260809	2.416902118707353	0.04482724114176988	0.4813839112642436	-0.2315252081519096	1.988563296701548	1.988563296701553	0.3458121233780186	0.0007048102974896967	0.4780501747406582	0.2872397977328859	-0.13232427076446	0.08434776622169958	-0.00574405398610164	-0.2149368920529383	0.006255104351325294	-0.01481841223381854	0.1372877099159439	-26.63504373034715	17.52629685127308	-10.41642586350097	1.275902184304649	-455.8628194366077	-23.99814916828225	-1.4157139317596	0.7498111117472063	0.4707761672546092	-0.1163702787329477	-2.23912772730457	0.008523588482050263	-0.8054608530766576	1.482947461882361	-2.529313552697689	-2.529313552697937	-0.4084360277520986	-0.01283915120299538	-1.251899593172289	-0.2448168465779641	-5.169217320646731e-08	-3.172163892259989e-06	-8.697169944008514e-07	-4.941440089748824e-07	-9.725246696298584e-08	-1.954114399398128e-06	-1.671585064021482e-07
0.5600000000000001	-0.2727106011644141	0.01903377075474932	0.7286596120461477	1.176254963572742	-0.3562481487479478	0.0266391288655814	-0.4181164128425558	1.115939520511094	1.115939520511021	0.007381402407982209	-0.1743856908875597	0.3548074602328033	0.192056353660713	-0.7348053204492526	-0.1515892320896681	-0.582052023366071	2.393613915934994	0.04501034402143791	0.4734888729785776	-0.2166304983734298	1.962504994230797	1.962504994230801	0.3416333344367004	0.0008962899934992984	0.4653922652266793	0.2847894955094757	-0.1371061826671529	0.08508362849449483	-0.006034176563982334	-0.2182634854381104	0.005210715334423326	-0.01457986594570082	0.140885476977437	-27.25090536998336	17.75957349471155	-10.71524095788359	1.397415428942756	-459.6254409500136	-24.11431152277576	-1.091805025806032	0.7921278954221755	0.477818130587656	-0.03475870693744629	-2.409868994516524	0.03703614785628263	-0.7350347522368703	1.503271934103332	-2.677982884599166	-2.677982884599166	-0.4436930628802098	0.08852823028013265	-1.276912450393142	-0.2318512570561259	-4.911647756339821e-08	-2.907159050438487e-06	-7.403893122073684e-07	-4.583791342508274e-07	-9.610799153573518e-08	-1.819474525142055e-06	-1.599405000485228e-07
0.5700000000000001	-0.2800176046382762	0.01754194075325969	0.722838813381417	1.200066744662234	-0.3557970520082464	0.03133292036000044	-0.420208307662185	1.135427762656454	1.135427762656451	0.01077733541380613	-0.1743759585834525	0.3593969000111823	0.194890914200244	-0.726502837084956	-0.1467624813710958	-0.5819661366646345	2.36842053553186	0.04520661376277341	0.465149573410851	-0.2017653179667013	1.934886371273864	1.934886371273869	0.3376161890456827	0.001013990657627564	0.4524596683260646	0.2820754078201561	-0.1416508871512952	0.0855626204485533	-0.006383473845825654	-0.2219233366012789	0.00461581540267842	-0.01434498627501129	0.1442869480225117	-27.722874832613	17.97752323462727	-11.02106368664461	1.394892644403107	-463.4009350402055	-24.3020090699421	-0.8126952234787238	0.8631648985815261	0.4871589376654669	0.05147920377455264	-2.622358511658166	0.01082730113517793	-0.9015408155019498	1.47561323202075	-2.84233036464178	-2.842330364641567	-0.3716538336905723	-0.03227307213893588	-1.306968401018955	-0.2977522656572553	-4.656333711229089e-08	-2.663035873880171e-06	-6.234011021301346e-07	-4.24917799599188e-07	-9.694915644040157e-08	-1.704330583441903e-06	-1.517734415547795e-07
0.58	-0.2872388120101676	0.0160987893379902	0.7170231169527199	1.223616934758019	-0.3553440115883624	0.03593968620747513	-0.4221520562501311	1.154632112899564	1.15463211289962	0.01413491125425651	-0.17436618208404	0.3638559068023147	0.1976970209147242	-0.7176461000547359	-0.1418535148456402	-0.5810315761594722	2.341295717190879	0.04539908005860102	0.4560837435846883	-0.1870012520374378	1.905726613780882	1.905726613780889	0.3339619013955596	0.00090512905703103	0.4393056677805138	0.2790987304993428	-0.1461955916353035	0.08604161240274384	-0.006732771128890903	-0.2255831877644573	0.004020915470967988	-0.01411010660407714	0.1476884190677092	-28.19530336799111	18.18695366489085	-11.31570613773108	1.385090867949199	-467.181741544392	-24.52583763463319	-0.5773294729809462	0.9029786286071122	0.4942612919640824	0.1349760538076526	-2.796156582085608	0.03627545875464724	-0.8803408039240873	1.483049038610426	-2.986209791808622	-2.986209791808622	-0.3711215147012482	0.04321577733513805	-1.32119317938072	-0.2843691833549895	-4.403957086466873e-08	-2.446107424176239e-06	-5.224829022508072e-07	-3.94456424111625e-07	-1.003762715447737e-07	-1.614576693442487e-06	-1.42370408180883e-07
